<svg xmlns="http://www.w3.org/2000/svg" width="580" height="580" fill="#8a2be2">
  <path d="M8.707 1h12v2h-12zM1.707 0h4v4h-4zM8.707 9h12v2h-12zM8.707 17h12v2h-12zM1.707 16h4v4h-4zM2.707 13.414l4.707-4.707L6 7.293l-3.293 3.293-1.293-1.293L0 10.707l2.707 2.707z"
    transform="translate(0,15) rotate(-45)"/>
  <path d="M8.707 1h12v2h-12zM1.707 0h4v4h-4zM8.707 9h12v2h-12zM8.707 17h12v2h-12zM1.707 16h4v4h-4zM2.707 13.414l4.707-4.707L6 7.293l-3.293 3.293-1.293-1.293L0 10.707l2.707 2.707z"
    transform="translate(50,15) rotate(-45)"/>
  <path d="M8.707 1h12v2h-12zM1.707 0h4v4h-4zM8.707 9h12v2h-12zM8.707 17h12v2h-12zM1.707 16h4v4h-4zM2.707 13.414l4.707-4.707L6 7.293l-3.293 3.293-1.293-1.293L0 10.707l2.707 2.707z"
    transform="translate(100,15) rotate(-45)"/>
  <path d="M8.707 1h12v2h-12zM1.707 0h4v4h-4zM8.707 9h12v2h-12zM8.707 17h12v2h-12zM1.707 16h4v4h-4zM2.707 13.414l4.707-4.707L6 7.293l-3.293 3.293-1.293-1.293L0 10.707l2.707 2.707z"
    transform="translate(150,15) rotate(-45)"/>
  <path d="M8.707 1h12v2h-12zM1.707 0h4v4h-4zM8.707 9h12v2h-12zM8.707 17h12v2h-12zM1.707 16h4v4h-4zM2.707 13.414l4.707-4.707L6 7.293l-3.293 3.293-1.293-1.293L0 10.707l2.707 2.707z"
    transform="translate(200,15) rotate(-45)"/>
  <path d="M8.707 1h12v2h-12zM1.707 0h4v4h-4zM8.707 9h12v2h-12zM8.707 17h12v2h-12zM1.707 16h4v4h-4zM2.707 13.414l4.707-4.707L6 7.293l-3.293 3.293-1.293-1.293L0 10.707l2.707 2.707z"
    transform="translate(250,15) rotate(-45)"/>
  <path d="M8.707 1h12v2h-12zM1.707 0h4v4h-4zM8.707 9h12v2h-12zM8.707 17h12v2h-12zM1.707 16h4v4h-4zM2.707 13.414l4.707-4.707L6 7.293l-3.293 3.293-1.293-1.293L0 10.707l2.707 2.707z"
    transform="translate(300,15) rotate(-45)"/>
  <path d="M8.707 1h12v2h-12zM1.707 0h4v4h-4zM8.707 9h12v2h-12zM8.707 17h12v2h-12zM1.707 16h4v4h-4zM2.707 13.414l4.707-4.707L6 7.293l-3.293 3.293-1.293-1.293L0 10.707l2.707 2.707z"
    transform="translate(350,15) rotate(-45)"/>
  <path d="M8.707 1h12v2h-12zM1.707 0h4v4h-4zM8.707 9h12v2h-12zM8.707 17h12v2h-12zM1.707 16h4v4h-4zM2.707 13.414l4.707-4.707L6 7.293l-3.293 3.293-1.293-1.293L0 10.707l2.707 2.707z"
    transform="translate(400,15) rotate(-45)"/>
  <path d="M8.707 1h12v2h-12zM1.707 0h4v4h-4zM8.707 9h12v2h-12zM8.707 17h12v2h-12zM1.707 16h4v4h-4zM2.707 13.414l4.707-4.707L6 7.293l-3.293 3.293-1.293-1.293L0 10.707l2.707 2.707z"
    transform="translate(450,15) rotate(-45)"/>
  <path d="M8.707 1h12v2h-12zM1.707 0h4v4h-4zM8.707 9h12v2h-12zM8.707 17h12v2h-12zM1.707 16h4v4h-4zM2.707 13.414l4.707-4.707L6 7.293l-3.293 3.293-1.293-1.293L0 10.707l2.707 2.707z"
    transform="translate(500,15) rotate(-45)"/>
  <path d="M8.707 1h12v2h-12zM1.707 0h4v4h-4zM8.707 9h12v2h-12zM8.707 17h12v2h-12zM1.707 16h4v4h-4zM2.707 13.414l4.707-4.707L6 7.293l-3.293 3.293-1.293-1.293L0 10.707l2.707 2.707z"
    transform="translate(550,15) rotate(-45)"/>
  <path d="M8.707 1h12v2h-12zM1.707 0h4v4h-4zM8.707 9h12v2h-12zM8.707 17h12v2h-12zM1.707 16h4v4h-4zM2.707 13.414l4.707-4.707L6 7.293l-3.293 3.293-1.293-1.293L0 10.707l2.707 2.707z"
    transform="translate(0,65) rotate(-45)"/>
  <path d="M8.707 1h12v2h-12zM1.707 0h4v4h-4zM8.707 9h12v2h-12zM8.707 17h12v2h-12zM1.707 16h4v4h-4zM2.707 13.414l4.707-4.707L6 7.293l-3.293 3.293-1.293-1.293L0 10.707l2.707 2.707z"
    transform="translate(50,65) rotate(-45)"/>
  <path d="M8.707 1h12v2h-12zM1.707 0h4v4h-4zM8.707 9h12v2h-12zM8.707 17h12v2h-12zM1.707 16h4v4h-4zM2.707 13.414l4.707-4.707L6 7.293l-3.293 3.293-1.293-1.293L0 10.707l2.707 2.707z"
    transform="translate(100,65) rotate(-45)"/>
  <path d="M8.707 1h12v2h-12zM1.707 0h4v4h-4zM8.707 9h12v2h-12zM8.707 17h12v2h-12zM1.707 16h4v4h-4zM2.707 13.414l4.707-4.707L6 7.293l-3.293 3.293-1.293-1.293L0 10.707l2.707 2.707z"
    transform="translate(150,65) rotate(-45)"/>
  <path d="M8.707 1h12v2h-12zM1.707 0h4v4h-4zM8.707 9h12v2h-12zM8.707 17h12v2h-12zM1.707 16h4v4h-4zM2.707 13.414l4.707-4.707L6 7.293l-3.293 3.293-1.293-1.293L0 10.707l2.707 2.707z"
    transform="translate(200,65) rotate(-45)"/>
  <path d="M8.707 1h12v2h-12zM1.707 0h4v4h-4zM8.707 9h12v2h-12zM8.707 17h12v2h-12zM1.707 16h4v4h-4zM2.707 13.414l4.707-4.707L6 7.293l-3.293 3.293-1.293-1.293L0 10.707l2.707 2.707z"
    transform="translate(250,65) rotate(-45)"/>
  <path d="M8.707 1h12v2h-12zM1.707 0h4v4h-4zM8.707 9h12v2h-12zM8.707 17h12v2h-12zM1.707 16h4v4h-4zM2.707 13.414l4.707-4.707L6 7.293l-3.293 3.293-1.293-1.293L0 10.707l2.707 2.707z"
    transform="translate(300,65) rotate(-45)"/>
  <path d="M8.707 1h12v2h-12zM1.707 0h4v4h-4zM8.707 9h12v2h-12zM8.707 17h12v2h-12zM1.707 16h4v4h-4zM2.707 13.414l4.707-4.707L6 7.293l-3.293 3.293-1.293-1.293L0 10.707l2.707 2.707z"
    transform="translate(350,65) rotate(-45)"/>
  <path d="M8.707 1h12v2h-12zM1.707 0h4v4h-4zM8.707 9h12v2h-12zM8.707 17h12v2h-12zM1.707 16h4v4h-4zM2.707 13.414l4.707-4.707L6 7.293l-3.293 3.293-1.293-1.293L0 10.707l2.707 2.707z"
    transform="translate(400,65) rotate(-45)"/>
  <path d="M8.707 1h12v2h-12zM1.707 0h4v4h-4zM8.707 9h12v2h-12zM8.707 17h12v2h-12zM1.707 16h4v4h-4zM2.707 13.414l4.707-4.707L6 7.293l-3.293 3.293-1.293-1.293L0 10.707l2.707 2.707z"
    transform="translate(450,65) rotate(-45)"/>
  <path d="M8.707 1h12v2h-12zM1.707 0h4v4h-4zM8.707 9h12v2h-12zM8.707 17h12v2h-12zM1.707 16h4v4h-4zM2.707 13.414l4.707-4.707L6 7.293l-3.293 3.293-1.293-1.293L0 10.707l2.707 2.707z"
    transform="translate(500,65) rotate(-45)"/>
  <path d="M8.707 1h12v2h-12zM1.707 0h4v4h-4zM8.707 9h12v2h-12zM8.707 17h12v2h-12zM1.707 16h4v4h-4zM2.707 13.414l4.707-4.707L6 7.293l-3.293 3.293-1.293-1.293L0 10.707l2.707 2.707z"
    transform="translate(550,65) rotate(-45)"/>
  <path d="M8.707 1h12v2h-12zM1.707 0h4v4h-4zM8.707 9h12v2h-12zM8.707 17h12v2h-12zM1.707 16h4v4h-4zM2.707 13.414l4.707-4.707L6 7.293l-3.293 3.293-1.293-1.293L0 10.707l2.707 2.707z"
    transform="translate(0,115) rotate(-45)"/>
  <path d="M8.707 1h12v2h-12zM1.707 0h4v4h-4zM8.707 9h12v2h-12zM8.707 17h12v2h-12zM1.707 16h4v4h-4zM2.707 13.414l4.707-4.707L6 7.293l-3.293 3.293-1.293-1.293L0 10.707l2.707 2.707z"
    transform="translate(50,115) rotate(-45)"/>
  <path d="M8.707 1h12v2h-12zM1.707 0h4v4h-4zM8.707 9h12v2h-12zM8.707 17h12v2h-12zM1.707 16h4v4h-4zM2.707 13.414l4.707-4.707L6 7.293l-3.293 3.293-1.293-1.293L0 10.707l2.707 2.707z"
    transform="translate(100,115) rotate(-45)"/>
  <path d="M8.707 1h12v2h-12zM1.707 0h4v4h-4zM8.707 9h12v2h-12zM8.707 17h12v2h-12zM1.707 16h4v4h-4zM2.707 13.414l4.707-4.707L6 7.293l-3.293 3.293-1.293-1.293L0 10.707l2.707 2.707z"
    transform="translate(150,115) rotate(-45)"/>
  <path d="M8.707 1h12v2h-12zM1.707 0h4v4h-4zM8.707 9h12v2h-12zM8.707 17h12v2h-12zM1.707 16h4v4h-4zM2.707 13.414l4.707-4.707L6 7.293l-3.293 3.293-1.293-1.293L0 10.707l2.707 2.707z"
    transform="translate(200,115) rotate(-45)"/>
  <path d="M8.707 1h12v2h-12zM1.707 0h4v4h-4zM8.707 9h12v2h-12zM8.707 17h12v2h-12zM1.707 16h4v4h-4zM2.707 13.414l4.707-4.707L6 7.293l-3.293 3.293-1.293-1.293L0 10.707l2.707 2.707z"
    transform="translate(250,115) rotate(-45)"/>
  <path d="M8.707 1h12v2h-12zM1.707 0h4v4h-4zM8.707 9h12v2h-12zM8.707 17h12v2h-12zM1.707 16h4v4h-4zM2.707 13.414l4.707-4.707L6 7.293l-3.293 3.293-1.293-1.293L0 10.707l2.707 2.707z"
    transform="translate(300,115) rotate(-45)"/>
  <path d="M8.707 1h12v2h-12zM1.707 0h4v4h-4zM8.707 9h12v2h-12zM8.707 17h12v2h-12zM1.707 16h4v4h-4zM2.707 13.414l4.707-4.707L6 7.293l-3.293 3.293-1.293-1.293L0 10.707l2.707 2.707z"
    transform="translate(350,115) rotate(-45)"/>
  <path d="M8.707 1h12v2h-12zM1.707 0h4v4h-4zM8.707 9h12v2h-12zM8.707 17h12v2h-12zM1.707 16h4v4h-4zM2.707 13.414l4.707-4.707L6 7.293l-3.293 3.293-1.293-1.293L0 10.707l2.707 2.707z"
    transform="translate(400,115) rotate(-45)"/>
  <path d="M8.707 1h12v2h-12zM1.707 0h4v4h-4zM8.707 9h12v2h-12zM8.707 17h12v2h-12zM1.707 16h4v4h-4zM2.707 13.414l4.707-4.707L6 7.293l-3.293 3.293-1.293-1.293L0 10.707l2.707 2.707z"
    transform="translate(450,115) rotate(-45)"/>
  <path d="M8.707 1h12v2h-12zM1.707 0h4v4h-4zM8.707 9h12v2h-12zM8.707 17h12v2h-12zM1.707 16h4v4h-4zM2.707 13.414l4.707-4.707L6 7.293l-3.293 3.293-1.293-1.293L0 10.707l2.707 2.707z"
    transform="translate(500,115) rotate(-45)"/>
  <path d="M8.707 1h12v2h-12zM1.707 0h4v4h-4zM8.707 9h12v2h-12zM8.707 17h12v2h-12zM1.707 16h4v4h-4zM2.707 13.414l4.707-4.707L6 7.293l-3.293 3.293-1.293-1.293L0 10.707l2.707 2.707z"
    transform="translate(550,115) rotate(-45)"/>
  <path d="M8.707 1h12v2h-12zM1.707 0h4v4h-4zM8.707 9h12v2h-12zM8.707 17h12v2h-12zM1.707 16h4v4h-4zM2.707 13.414l4.707-4.707L6 7.293l-3.293 3.293-1.293-1.293L0 10.707l2.707 2.707z"
    transform="translate(0,165) rotate(-45)"/>
  <path d="M8.707 1h12v2h-12zM1.707 0h4v4h-4zM8.707 9h12v2h-12zM8.707 17h12v2h-12zM1.707 16h4v4h-4zM2.707 13.414l4.707-4.707L6 7.293l-3.293 3.293-1.293-1.293L0 10.707l2.707 2.707z"
    transform="translate(50,165) rotate(-45)"/>
  <path d="M8.707 1h12v2h-12zM1.707 0h4v4h-4zM8.707 9h12v2h-12zM8.707 17h12v2h-12zM1.707 16h4v4h-4zM2.707 13.414l4.707-4.707L6 7.293l-3.293 3.293-1.293-1.293L0 10.707l2.707 2.707z"
    transform="translate(100,165) rotate(-45)"/>
  <path d="M8.707 1h12v2h-12zM1.707 0h4v4h-4zM8.707 9h12v2h-12zM8.707 17h12v2h-12zM1.707 16h4v4h-4zM2.707 13.414l4.707-4.707L6 7.293l-3.293 3.293-1.293-1.293L0 10.707l2.707 2.707z"
    transform="translate(150,165) rotate(-45)"/>
  <path d="M8.707 1h12v2h-12zM1.707 0h4v4h-4zM8.707 9h12v2h-12zM8.707 17h12v2h-12zM1.707 16h4v4h-4zM2.707 13.414l4.707-4.707L6 7.293l-3.293 3.293-1.293-1.293L0 10.707l2.707 2.707z"
    transform="translate(200,165) rotate(-45)"/>
  <path d="M8.707 1h12v2h-12zM1.707 0h4v4h-4zM8.707 9h12v2h-12zM8.707 17h12v2h-12zM1.707 16h4v4h-4zM2.707 13.414l4.707-4.707L6 7.293l-3.293 3.293-1.293-1.293L0 10.707l2.707 2.707z"
    transform="translate(250,165) rotate(-45)"/>
  <path d="M8.707 1h12v2h-12zM1.707 0h4v4h-4zM8.707 9h12v2h-12zM8.707 17h12v2h-12zM1.707 16h4v4h-4zM2.707 13.414l4.707-4.707L6 7.293l-3.293 3.293-1.293-1.293L0 10.707l2.707 2.707z"
    transform="translate(300,165) rotate(-45)"/>
  <path d="M8.707 1h12v2h-12zM1.707 0h4v4h-4zM8.707 9h12v2h-12zM8.707 17h12v2h-12zM1.707 16h4v4h-4zM2.707 13.414l4.707-4.707L6 7.293l-3.293 3.293-1.293-1.293L0 10.707l2.707 2.707z"
    transform="translate(350,165) rotate(-45)"/>
  <path d="M8.707 1h12v2h-12zM1.707 0h4v4h-4zM8.707 9h12v2h-12zM8.707 17h12v2h-12zM1.707 16h4v4h-4zM2.707 13.414l4.707-4.707L6 7.293l-3.293 3.293-1.293-1.293L0 10.707l2.707 2.707z"
    transform="translate(400,165) rotate(-45)"/>
  <path d="M8.707 1h12v2h-12zM1.707 0h4v4h-4zM8.707 9h12v2h-12zM8.707 17h12v2h-12zM1.707 16h4v4h-4zM2.707 13.414l4.707-4.707L6 7.293l-3.293 3.293-1.293-1.293L0 10.707l2.707 2.707z"
    transform="translate(450,165) rotate(-45)"/>
  <path d="M8.707 1h12v2h-12zM1.707 0h4v4h-4zM8.707 9h12v2h-12zM8.707 17h12v2h-12zM1.707 16h4v4h-4zM2.707 13.414l4.707-4.707L6 7.293l-3.293 3.293-1.293-1.293L0 10.707l2.707 2.707z"
    transform="translate(500,165) rotate(-45)"/>
  <path d="M8.707 1h12v2h-12zM1.707 0h4v4h-4zM8.707 9h12v2h-12zM8.707 17h12v2h-12zM1.707 16h4v4h-4zM2.707 13.414l4.707-4.707L6 7.293l-3.293 3.293-1.293-1.293L0 10.707l2.707 2.707z"
    transform="translate(550,165) rotate(-45)"/>
  <path d="M8.707 1h12v2h-12zM1.707 0h4v4h-4zM8.707 9h12v2h-12zM8.707 17h12v2h-12zM1.707 16h4v4h-4zM2.707 13.414l4.707-4.707L6 7.293l-3.293 3.293-1.293-1.293L0 10.707l2.707 2.707z"
    transform="translate(0,215) rotate(-45)"/>
  <path d="M8.707 1h12v2h-12zM1.707 0h4v4h-4zM8.707 9h12v2h-12zM8.707 17h12v2h-12zM1.707 16h4v4h-4zM2.707 13.414l4.707-4.707L6 7.293l-3.293 3.293-1.293-1.293L0 10.707l2.707 2.707z"
    transform="translate(50,215) rotate(-45)"/>
  <path d="M8.707 1h12v2h-12zM1.707 0h4v4h-4zM8.707 9h12v2h-12zM8.707 17h12v2h-12zM1.707 16h4v4h-4zM2.707 13.414l4.707-4.707L6 7.293l-3.293 3.293-1.293-1.293L0 10.707l2.707 2.707z"
    transform="translate(100,215) rotate(-45)"/>
  <path d="M8.707 1h12v2h-12zM1.707 0h4v4h-4zM8.707 9h12v2h-12zM8.707 17h12v2h-12zM1.707 16h4v4h-4zM2.707 13.414l4.707-4.707L6 7.293l-3.293 3.293-1.293-1.293L0 10.707l2.707 2.707z"
    transform="translate(150,215) rotate(-45)"/>
  <path d="M8.707 1h12v2h-12zM1.707 0h4v4h-4zM8.707 9h12v2h-12zM8.707 17h12v2h-12zM1.707 16h4v4h-4zM2.707 13.414l4.707-4.707L6 7.293l-3.293 3.293-1.293-1.293L0 10.707l2.707 2.707z"
    transform="translate(200,215) rotate(-45)"/>
  <path d="M8.707 1h12v2h-12zM1.707 0h4v4h-4zM8.707 9h12v2h-12zM8.707 17h12v2h-12zM1.707 16h4v4h-4zM2.707 13.414l4.707-4.707L6 7.293l-3.293 3.293-1.293-1.293L0 10.707l2.707 2.707z"
    transform="translate(250,215) rotate(-45)"/>
  <path d="M8.707 1h12v2h-12zM1.707 0h4v4h-4zM8.707 9h12v2h-12zM8.707 17h12v2h-12zM1.707 16h4v4h-4zM2.707 13.414l4.707-4.707L6 7.293l-3.293 3.293-1.293-1.293L0 10.707l2.707 2.707z"
    transform="translate(300,215) rotate(-45)"/>
  <path d="M8.707 1h12v2h-12zM1.707 0h4v4h-4zM8.707 9h12v2h-12zM8.707 17h12v2h-12zM1.707 16h4v4h-4zM2.707 13.414l4.707-4.707L6 7.293l-3.293 3.293-1.293-1.293L0 10.707l2.707 2.707z"
    transform="translate(350,215) rotate(-45)"/>
  <path d="M8.707 1h12v2h-12zM1.707 0h4v4h-4zM8.707 9h12v2h-12zM8.707 17h12v2h-12zM1.707 16h4v4h-4zM2.707 13.414l4.707-4.707L6 7.293l-3.293 3.293-1.293-1.293L0 10.707l2.707 2.707z"
    transform="translate(400,215) rotate(-45)"/>
  <path d="M8.707 1h12v2h-12zM1.707 0h4v4h-4zM8.707 9h12v2h-12zM8.707 17h12v2h-12zM1.707 16h4v4h-4zM2.707 13.414l4.707-4.707L6 7.293l-3.293 3.293-1.293-1.293L0 10.707l2.707 2.707z"
    transform="translate(450,215) rotate(-45)"/>
  <path d="M8.707 1h12v2h-12zM1.707 0h4v4h-4zM8.707 9h12v2h-12zM8.707 17h12v2h-12zM1.707 16h4v4h-4zM2.707 13.414l4.707-4.707L6 7.293l-3.293 3.293-1.293-1.293L0 10.707l2.707 2.707z"
    transform="translate(500,215) rotate(-45)"/>
  <path d="M8.707 1h12v2h-12zM1.707 0h4v4h-4zM8.707 9h12v2h-12zM8.707 17h12v2h-12zM1.707 16h4v4h-4zM2.707 13.414l4.707-4.707L6 7.293l-3.293 3.293-1.293-1.293L0 10.707l2.707 2.707z"
    transform="translate(550,215) rotate(-45)"/>
  <path d="M8.707 1h12v2h-12zM1.707 0h4v4h-4zM8.707 9h12v2h-12zM8.707 17h12v2h-12zM1.707 16h4v4h-4zM2.707 13.414l4.707-4.707L6 7.293l-3.293 3.293-1.293-1.293L0 10.707l2.707 2.707z"
    transform="translate(0,265) rotate(-45)"/>
  <path d="M8.707 1h12v2h-12zM1.707 0h4v4h-4zM8.707 9h12v2h-12zM8.707 17h12v2h-12zM1.707 16h4v4h-4zM2.707 13.414l4.707-4.707L6 7.293l-3.293 3.293-1.293-1.293L0 10.707l2.707 2.707z"
    transform="translate(50,265) rotate(-45)"/>
  <path d="M8.707 1h12v2h-12zM1.707 0h4v4h-4zM8.707 9h12v2h-12zM8.707 17h12v2h-12zM1.707 16h4v4h-4zM2.707 13.414l4.707-4.707L6 7.293l-3.293 3.293-1.293-1.293L0 10.707l2.707 2.707z"
    transform="translate(100,265) rotate(-45)"/>
  <path d="M8.707 1h12v2h-12zM1.707 0h4v4h-4zM8.707 9h12v2h-12zM8.707 17h12v2h-12zM1.707 16h4v4h-4zM2.707 13.414l4.707-4.707L6 7.293l-3.293 3.293-1.293-1.293L0 10.707l2.707 2.707z"
    transform="translate(150,265) rotate(-45)"/>
  <path d="M8.707 1h12v2h-12zM1.707 0h4v4h-4zM8.707 9h12v2h-12zM8.707 17h12v2h-12zM1.707 16h4v4h-4zM2.707 13.414l4.707-4.707L6 7.293l-3.293 3.293-1.293-1.293L0 10.707l2.707 2.707z"
    transform="translate(200,265) rotate(-45)"/>
  <path d="M8.707 1h12v2h-12zM1.707 0h4v4h-4zM8.707 9h12v2h-12zM8.707 17h12v2h-12zM1.707 16h4v4h-4zM2.707 13.414l4.707-4.707L6 7.293l-3.293 3.293-1.293-1.293L0 10.707l2.707 2.707z"
    transform="translate(250,265) rotate(-45)"/>
  <path d="M8.707 1h12v2h-12zM1.707 0h4v4h-4zM8.707 9h12v2h-12zM8.707 17h12v2h-12zM1.707 16h4v4h-4zM2.707 13.414l4.707-4.707L6 7.293l-3.293 3.293-1.293-1.293L0 10.707l2.707 2.707z"
    transform="translate(300,265) rotate(-45)"/>
  <path d="M8.707 1h12v2h-12zM1.707 0h4v4h-4zM8.707 9h12v2h-12zM8.707 17h12v2h-12zM1.707 16h4v4h-4zM2.707 13.414l4.707-4.707L6 7.293l-3.293 3.293-1.293-1.293L0 10.707l2.707 2.707z"
    transform="translate(350,265) rotate(-45)"/>
  <path d="M8.707 1h12v2h-12zM1.707 0h4v4h-4zM8.707 9h12v2h-12zM8.707 17h12v2h-12zM1.707 16h4v4h-4zM2.707 13.414l4.707-4.707L6 7.293l-3.293 3.293-1.293-1.293L0 10.707l2.707 2.707z"
    transform="translate(400,265) rotate(-45)"/>
  <path d="M8.707 1h12v2h-12zM1.707 0h4v4h-4zM8.707 9h12v2h-12zM8.707 17h12v2h-12zM1.707 16h4v4h-4zM2.707 13.414l4.707-4.707L6 7.293l-3.293 3.293-1.293-1.293L0 10.707l2.707 2.707z"
    transform="translate(450,265) rotate(-45)"/>
  <path d="M8.707 1h12v2h-12zM1.707 0h4v4h-4zM8.707 9h12v2h-12zM8.707 17h12v2h-12zM1.707 16h4v4h-4zM2.707 13.414l4.707-4.707L6 7.293l-3.293 3.293-1.293-1.293L0 10.707l2.707 2.707z"
    transform="translate(500,265) rotate(-45)"/>
  <path d="M8.707 1h12v2h-12zM1.707 0h4v4h-4zM8.707 9h12v2h-12zM8.707 17h12v2h-12zM1.707 16h4v4h-4zM2.707 13.414l4.707-4.707L6 7.293l-3.293 3.293-1.293-1.293L0 10.707l2.707 2.707z"
    transform="translate(550,265) rotate(-45)"/>
  <path d="M8.707 1h12v2h-12zM1.707 0h4v4h-4zM8.707 9h12v2h-12zM8.707 17h12v2h-12zM1.707 16h4v4h-4zM2.707 13.414l4.707-4.707L6 7.293l-3.293 3.293-1.293-1.293L0 10.707l2.707 2.707z"
    transform="translate(0,315) rotate(-45)"/>
  <path d="M8.707 1h12v2h-12zM1.707 0h4v4h-4zM8.707 9h12v2h-12zM8.707 17h12v2h-12zM1.707 16h4v4h-4zM2.707 13.414l4.707-4.707L6 7.293l-3.293 3.293-1.293-1.293L0 10.707l2.707 2.707z"
    transform="translate(50,315) rotate(-45)"/>
  <path d="M8.707 1h12v2h-12zM1.707 0h4v4h-4zM8.707 9h12v2h-12zM8.707 17h12v2h-12zM1.707 16h4v4h-4zM2.707 13.414l4.707-4.707L6 7.293l-3.293 3.293-1.293-1.293L0 10.707l2.707 2.707z"
    transform="translate(100,315) rotate(-45)"/>
  <path d="M8.707 1h12v2h-12zM1.707 0h4v4h-4zM8.707 9h12v2h-12zM8.707 17h12v2h-12zM1.707 16h4v4h-4zM2.707 13.414l4.707-4.707L6 7.293l-3.293 3.293-1.293-1.293L0 10.707l2.707 2.707z"
    transform="translate(150,315) rotate(-45)"/>
  <path d="M8.707 1h12v2h-12zM1.707 0h4v4h-4zM8.707 9h12v2h-12zM8.707 17h12v2h-12zM1.707 16h4v4h-4zM2.707 13.414l4.707-4.707L6 7.293l-3.293 3.293-1.293-1.293L0 10.707l2.707 2.707z"
    transform="translate(200,315) rotate(-45)"/>
  <path d="M8.707 1h12v2h-12zM1.707 0h4v4h-4zM8.707 9h12v2h-12zM8.707 17h12v2h-12zM1.707 16h4v4h-4zM2.707 13.414l4.707-4.707L6 7.293l-3.293 3.293-1.293-1.293L0 10.707l2.707 2.707z"
    transform="translate(250,315) rotate(-45)"/>
  <path d="M8.707 1h12v2h-12zM1.707 0h4v4h-4zM8.707 9h12v2h-12zM8.707 17h12v2h-12zM1.707 16h4v4h-4zM2.707 13.414l4.707-4.707L6 7.293l-3.293 3.293-1.293-1.293L0 10.707l2.707 2.707z"
    transform="translate(300,315) rotate(-45)"/>
  <path d="M8.707 1h12v2h-12zM1.707 0h4v4h-4zM8.707 9h12v2h-12zM8.707 17h12v2h-12zM1.707 16h4v4h-4zM2.707 13.414l4.707-4.707L6 7.293l-3.293 3.293-1.293-1.293L0 10.707l2.707 2.707z"
    transform="translate(350,315) rotate(-45)"/>
  <path d="M8.707 1h12v2h-12zM1.707 0h4v4h-4zM8.707 9h12v2h-12zM8.707 17h12v2h-12zM1.707 16h4v4h-4zM2.707 13.414l4.707-4.707L6 7.293l-3.293 3.293-1.293-1.293L0 10.707l2.707 2.707z"
    transform="translate(400,315) rotate(-45)"/>
  <path d="M8.707 1h12v2h-12zM1.707 0h4v4h-4zM8.707 9h12v2h-12zM8.707 17h12v2h-12zM1.707 16h4v4h-4zM2.707 13.414l4.707-4.707L6 7.293l-3.293 3.293-1.293-1.293L0 10.707l2.707 2.707z"
    transform="translate(450,315) rotate(-45)"/>
  <path d="M8.707 1h12v2h-12zM1.707 0h4v4h-4zM8.707 9h12v2h-12zM8.707 17h12v2h-12zM1.707 16h4v4h-4zM2.707 13.414l4.707-4.707L6 7.293l-3.293 3.293-1.293-1.293L0 10.707l2.707 2.707z"
    transform="translate(500,315) rotate(-45)"/>
  <path d="M8.707 1h12v2h-12zM1.707 0h4v4h-4zM8.707 9h12v2h-12zM8.707 17h12v2h-12zM1.707 16h4v4h-4zM2.707 13.414l4.707-4.707L6 7.293l-3.293 3.293-1.293-1.293L0 10.707l2.707 2.707z"
    transform="translate(550,315) rotate(-45)"/>
  <path d="M8.707 1h12v2h-12zM1.707 0h4v4h-4zM8.707 9h12v2h-12zM8.707 17h12v2h-12zM1.707 16h4v4h-4zM2.707 13.414l4.707-4.707L6 7.293l-3.293 3.293-1.293-1.293L0 10.707l2.707 2.707z"
    transform="translate(0,365) rotate(-45)"/>
  <path d="M8.707 1h12v2h-12zM1.707 0h4v4h-4zM8.707 9h12v2h-12zM8.707 17h12v2h-12zM1.707 16h4v4h-4zM2.707 13.414l4.707-4.707L6 7.293l-3.293 3.293-1.293-1.293L0 10.707l2.707 2.707z"
    transform="translate(50,365) rotate(-45)"/>
  <path d="M8.707 1h12v2h-12zM1.707 0h4v4h-4zM8.707 9h12v2h-12zM8.707 17h12v2h-12zM1.707 16h4v4h-4zM2.707 13.414l4.707-4.707L6 7.293l-3.293 3.293-1.293-1.293L0 10.707l2.707 2.707z"
    transform="translate(100,365) rotate(-45)"/>
  <path d="M8.707 1h12v2h-12zM1.707 0h4v4h-4zM8.707 9h12v2h-12zM8.707 17h12v2h-12zM1.707 16h4v4h-4zM2.707 13.414l4.707-4.707L6 7.293l-3.293 3.293-1.293-1.293L0 10.707l2.707 2.707z"
    transform="translate(150,365) rotate(-45)"/>
  <path d="M8.707 1h12v2h-12zM1.707 0h4v4h-4zM8.707 9h12v2h-12zM8.707 17h12v2h-12zM1.707 16h4v4h-4zM2.707 13.414l4.707-4.707L6 7.293l-3.293 3.293-1.293-1.293L0 10.707l2.707 2.707z"
    transform="translate(200,365) rotate(-45)"/>
  <path d="M8.707 1h12v2h-12zM1.707 0h4v4h-4zM8.707 9h12v2h-12zM8.707 17h12v2h-12zM1.707 16h4v4h-4zM2.707 13.414l4.707-4.707L6 7.293l-3.293 3.293-1.293-1.293L0 10.707l2.707 2.707z"
    transform="translate(250,365) rotate(-45)"/>
  <path d="M8.707 1h12v2h-12zM1.707 0h4v4h-4zM8.707 9h12v2h-12zM8.707 17h12v2h-12zM1.707 16h4v4h-4zM2.707 13.414l4.707-4.707L6 7.293l-3.293 3.293-1.293-1.293L0 10.707l2.707 2.707z"
    transform="translate(300,365) rotate(-45)"/>
  <path d="M8.707 1h12v2h-12zM1.707 0h4v4h-4zM8.707 9h12v2h-12zM8.707 17h12v2h-12zM1.707 16h4v4h-4zM2.707 13.414l4.707-4.707L6 7.293l-3.293 3.293-1.293-1.293L0 10.707l2.707 2.707z"
    transform="translate(350,365) rotate(-45)"/>
  <path d="M8.707 1h12v2h-12zM1.707 0h4v4h-4zM8.707 9h12v2h-12zM8.707 17h12v2h-12zM1.707 16h4v4h-4zM2.707 13.414l4.707-4.707L6 7.293l-3.293 3.293-1.293-1.293L0 10.707l2.707 2.707z"
    transform="translate(400,365) rotate(-45)"/>
  <path d="M8.707 1h12v2h-12zM1.707 0h4v4h-4zM8.707 9h12v2h-12zM8.707 17h12v2h-12zM1.707 16h4v4h-4zM2.707 13.414l4.707-4.707L6 7.293l-3.293 3.293-1.293-1.293L0 10.707l2.707 2.707z"
    transform="translate(450,365) rotate(-45)"/>
  <path d="M8.707 1h12v2h-12zM1.707 0h4v4h-4zM8.707 9h12v2h-12zM8.707 17h12v2h-12zM1.707 16h4v4h-4zM2.707 13.414l4.707-4.707L6 7.293l-3.293 3.293-1.293-1.293L0 10.707l2.707 2.707z"
    transform="translate(500,365) rotate(-45)"/>
  <path d="M8.707 1h12v2h-12zM1.707 0h4v4h-4zM8.707 9h12v2h-12zM8.707 17h12v2h-12zM1.707 16h4v4h-4zM2.707 13.414l4.707-4.707L6 7.293l-3.293 3.293-1.293-1.293L0 10.707l2.707 2.707z"
    transform="translate(550,365) rotate(-45)"/>
  <path d="M8.707 1h12v2h-12zM1.707 0h4v4h-4zM8.707 9h12v2h-12zM8.707 17h12v2h-12zM1.707 16h4v4h-4zM2.707 13.414l4.707-4.707L6 7.293l-3.293 3.293-1.293-1.293L0 10.707l2.707 2.707z"
    transform="translate(0,415) rotate(-45)"/>
  <path d="M8.707 1h12v2h-12zM1.707 0h4v4h-4zM8.707 9h12v2h-12zM8.707 17h12v2h-12zM1.707 16h4v4h-4zM2.707 13.414l4.707-4.707L6 7.293l-3.293 3.293-1.293-1.293L0 10.707l2.707 2.707z"
    transform="translate(50,415) rotate(-45)"/>
  <path d="M8.707 1h12v2h-12zM1.707 0h4v4h-4zM8.707 9h12v2h-12zM8.707 17h12v2h-12zM1.707 16h4v4h-4zM2.707 13.414l4.707-4.707L6 7.293l-3.293 3.293-1.293-1.293L0 10.707l2.707 2.707z"
    transform="translate(100,415) rotate(-45)"/>
  <path d="M8.707 1h12v2h-12zM1.707 0h4v4h-4zM8.707 9h12v2h-12zM8.707 17h12v2h-12zM1.707 16h4v4h-4zM2.707 13.414l4.707-4.707L6 7.293l-3.293 3.293-1.293-1.293L0 10.707l2.707 2.707z"
    transform="translate(150,415) rotate(-45)"/>
  <path d="M8.707 1h12v2h-12zM1.707 0h4v4h-4zM8.707 9h12v2h-12zM8.707 17h12v2h-12zM1.707 16h4v4h-4zM2.707 13.414l4.707-4.707L6 7.293l-3.293 3.293-1.293-1.293L0 10.707l2.707 2.707z"
    transform="translate(200,415) rotate(-45)"/>
  <path d="M8.707 1h12v2h-12zM1.707 0h4v4h-4zM8.707 9h12v2h-12zM8.707 17h12v2h-12zM1.707 16h4v4h-4zM2.707 13.414l4.707-4.707L6 7.293l-3.293 3.293-1.293-1.293L0 10.707l2.707 2.707z"
    transform="translate(250,415) rotate(-45)"/>
  <path d="M8.707 1h12v2h-12zM1.707 0h4v4h-4zM8.707 9h12v2h-12zM8.707 17h12v2h-12zM1.707 16h4v4h-4zM2.707 13.414l4.707-4.707L6 7.293l-3.293 3.293-1.293-1.293L0 10.707l2.707 2.707z"
    transform="translate(300,415) rotate(-45)"/>
  <path d="M8.707 1h12v2h-12zM1.707 0h4v4h-4zM8.707 9h12v2h-12zM8.707 17h12v2h-12zM1.707 16h4v4h-4zM2.707 13.414l4.707-4.707L6 7.293l-3.293 3.293-1.293-1.293L0 10.707l2.707 2.707z"
    transform="translate(350,415) rotate(-45)"/>
  <path d="M8.707 1h12v2h-12zM1.707 0h4v4h-4zM8.707 9h12v2h-12zM8.707 17h12v2h-12zM1.707 16h4v4h-4zM2.707 13.414l4.707-4.707L6 7.293l-3.293 3.293-1.293-1.293L0 10.707l2.707 2.707z"
    transform="translate(400,415) rotate(-45)"/>
  <path d="M8.707 1h12v2h-12zM1.707 0h4v4h-4zM8.707 9h12v2h-12zM8.707 17h12v2h-12zM1.707 16h4v4h-4zM2.707 13.414l4.707-4.707L6 7.293l-3.293 3.293-1.293-1.293L0 10.707l2.707 2.707z"
    transform="translate(450,415) rotate(-45)"/>
  <path d="M8.707 1h12v2h-12zM1.707 0h4v4h-4zM8.707 9h12v2h-12zM8.707 17h12v2h-12zM1.707 16h4v4h-4zM2.707 13.414l4.707-4.707L6 7.293l-3.293 3.293-1.293-1.293L0 10.707l2.707 2.707z"
    transform="translate(500,415) rotate(-45)"/>
  <path d="M8.707 1h12v2h-12zM1.707 0h4v4h-4zM8.707 9h12v2h-12zM8.707 17h12v2h-12zM1.707 16h4v4h-4zM2.707 13.414l4.707-4.707L6 7.293l-3.293 3.293-1.293-1.293L0 10.707l2.707 2.707z"
    transform="translate(550,415) rotate(-45)"/>
  <path d="M8.707 1h12v2h-12zM1.707 0h4v4h-4zM8.707 9h12v2h-12zM8.707 17h12v2h-12zM1.707 16h4v4h-4zM2.707 13.414l4.707-4.707L6 7.293l-3.293 3.293-1.293-1.293L0 10.707l2.707 2.707z"
    transform="translate(0,465) rotate(-45)"/>
  <path d="M8.707 1h12v2h-12zM1.707 0h4v4h-4zM8.707 9h12v2h-12zM8.707 17h12v2h-12zM1.707 16h4v4h-4zM2.707 13.414l4.707-4.707L6 7.293l-3.293 3.293-1.293-1.293L0 10.707l2.707 2.707z"
    transform="translate(50,465) rotate(-45)"/>
  <path d="M8.707 1h12v2h-12zM1.707 0h4v4h-4zM8.707 9h12v2h-12zM8.707 17h12v2h-12zM1.707 16h4v4h-4zM2.707 13.414l4.707-4.707L6 7.293l-3.293 3.293-1.293-1.293L0 10.707l2.707 2.707z"
    transform="translate(100,465) rotate(-45)"/>
  <path d="M8.707 1h12v2h-12zM1.707 0h4v4h-4zM8.707 9h12v2h-12zM8.707 17h12v2h-12zM1.707 16h4v4h-4zM2.707 13.414l4.707-4.707L6 7.293l-3.293 3.293-1.293-1.293L0 10.707l2.707 2.707z"
    transform="translate(150,465) rotate(-45)"/>
  <path d="M8.707 1h12v2h-12zM1.707 0h4v4h-4zM8.707 9h12v2h-12zM8.707 17h12v2h-12zM1.707 16h4v4h-4zM2.707 13.414l4.707-4.707L6 7.293l-3.293 3.293-1.293-1.293L0 10.707l2.707 2.707z"
    transform="translate(200,465) rotate(-45)"/>
  <path d="M8.707 1h12v2h-12zM1.707 0h4v4h-4zM8.707 9h12v2h-12zM8.707 17h12v2h-12zM1.707 16h4v4h-4zM2.707 13.414l4.707-4.707L6 7.293l-3.293 3.293-1.293-1.293L0 10.707l2.707 2.707z"
    transform="translate(250,465) rotate(-45)"/>
  <path d="M8.707 1h12v2h-12zM1.707 0h4v4h-4zM8.707 9h12v2h-12zM8.707 17h12v2h-12zM1.707 16h4v4h-4zM2.707 13.414l4.707-4.707L6 7.293l-3.293 3.293-1.293-1.293L0 10.707l2.707 2.707z"
    transform="translate(300,465) rotate(-45)"/>
  <path d="M8.707 1h12v2h-12zM1.707 0h4v4h-4zM8.707 9h12v2h-12zM8.707 17h12v2h-12zM1.707 16h4v4h-4zM2.707 13.414l4.707-4.707L6 7.293l-3.293 3.293-1.293-1.293L0 10.707l2.707 2.707z"
    transform="translate(350,465) rotate(-45)"/>
  <path d="M8.707 1h12v2h-12zM1.707 0h4v4h-4zM8.707 9h12v2h-12zM8.707 17h12v2h-12zM1.707 16h4v4h-4zM2.707 13.414l4.707-4.707L6 7.293l-3.293 3.293-1.293-1.293L0 10.707l2.707 2.707z"
    transform="translate(400,465) rotate(-45)"/>
  <path d="M8.707 1h12v2h-12zM1.707 0h4v4h-4zM8.707 9h12v2h-12zM8.707 17h12v2h-12zM1.707 16h4v4h-4zM2.707 13.414l4.707-4.707L6 7.293l-3.293 3.293-1.293-1.293L0 10.707l2.707 2.707z"
    transform="translate(450,465) rotate(-45)"/>
  <path d="M8.707 1h12v2h-12zM1.707 0h4v4h-4zM8.707 9h12v2h-12zM8.707 17h12v2h-12zM1.707 16h4v4h-4zM2.707 13.414l4.707-4.707L6 7.293l-3.293 3.293-1.293-1.293L0 10.707l2.707 2.707z"
    transform="translate(500,465) rotate(-45)"/>
  <path d="M8.707 1h12v2h-12zM1.707 0h4v4h-4zM8.707 9h12v2h-12zM8.707 17h12v2h-12zM1.707 16h4v4h-4zM2.707 13.414l4.707-4.707L6 7.293l-3.293 3.293-1.293-1.293L0 10.707l2.707 2.707z"
    transform="translate(550,465) rotate(-45)"/>
  <path d="M8.707 1h12v2h-12zM1.707 0h4v4h-4zM8.707 9h12v2h-12zM8.707 17h12v2h-12zM1.707 16h4v4h-4zM2.707 13.414l4.707-4.707L6 7.293l-3.293 3.293-1.293-1.293L0 10.707l2.707 2.707z"
    transform="translate(0,515) rotate(-45)"/>
  <path d="M8.707 1h12v2h-12zM1.707 0h4v4h-4zM8.707 9h12v2h-12zM8.707 17h12v2h-12zM1.707 16h4v4h-4zM2.707 13.414l4.707-4.707L6 7.293l-3.293 3.293-1.293-1.293L0 10.707l2.707 2.707z"
    transform="translate(50,515) rotate(-45)"/>
  <path d="M8.707 1h12v2h-12zM1.707 0h4v4h-4zM8.707 9h12v2h-12zM8.707 17h12v2h-12zM1.707 16h4v4h-4zM2.707 13.414l4.707-4.707L6 7.293l-3.293 3.293-1.293-1.293L0 10.707l2.707 2.707z"
    transform="translate(100,515) rotate(-45)"/>
  <path d="M8.707 1h12v2h-12zM1.707 0h4v4h-4zM8.707 9h12v2h-12zM8.707 17h12v2h-12zM1.707 16h4v4h-4zM2.707 13.414l4.707-4.707L6 7.293l-3.293 3.293-1.293-1.293L0 10.707l2.707 2.707z"
    transform="translate(150,515) rotate(-45)"/>
  <path d="M8.707 1h12v2h-12zM1.707 0h4v4h-4zM8.707 9h12v2h-12zM8.707 17h12v2h-12zM1.707 16h4v4h-4zM2.707 13.414l4.707-4.707L6 7.293l-3.293 3.293-1.293-1.293L0 10.707l2.707 2.707z"
    transform="translate(200,515) rotate(-45)"/>
  <path d="M8.707 1h12v2h-12zM1.707 0h4v4h-4zM8.707 9h12v2h-12zM8.707 17h12v2h-12zM1.707 16h4v4h-4zM2.707 13.414l4.707-4.707L6 7.293l-3.293 3.293-1.293-1.293L0 10.707l2.707 2.707z"
    transform="translate(250,515) rotate(-45)"/>
  <path d="M8.707 1h12v2h-12zM1.707 0h4v4h-4zM8.707 9h12v2h-12zM8.707 17h12v2h-12zM1.707 16h4v4h-4zM2.707 13.414l4.707-4.707L6 7.293l-3.293 3.293-1.293-1.293L0 10.707l2.707 2.707z"
    transform="translate(300,515) rotate(-45)"/>
  <path d="M8.707 1h12v2h-12zM1.707 0h4v4h-4zM8.707 9h12v2h-12zM8.707 17h12v2h-12zM1.707 16h4v4h-4zM2.707 13.414l4.707-4.707L6 7.293l-3.293 3.293-1.293-1.293L0 10.707l2.707 2.707z"
    transform="translate(350,515) rotate(-45)"/>
  <path d="M8.707 1h12v2h-12zM1.707 0h4v4h-4zM8.707 9h12v2h-12zM8.707 17h12v2h-12zM1.707 16h4v4h-4zM2.707 13.414l4.707-4.707L6 7.293l-3.293 3.293-1.293-1.293L0 10.707l2.707 2.707z"
    transform="translate(400,515) rotate(-45)"/>
  <path d="M8.707 1h12v2h-12zM1.707 0h4v4h-4zM8.707 9h12v2h-12zM8.707 17h12v2h-12zM1.707 16h4v4h-4zM2.707 13.414l4.707-4.707L6 7.293l-3.293 3.293-1.293-1.293L0 10.707l2.707 2.707z"
    transform="translate(450,515) rotate(-45)"/>
  <path d="M8.707 1h12v2h-12zM1.707 0h4v4h-4zM8.707 9h12v2h-12zM8.707 17h12v2h-12zM1.707 16h4v4h-4zM2.707 13.414l4.707-4.707L6 7.293l-3.293 3.293-1.293-1.293L0 10.707l2.707 2.707z"
    transform="translate(500,515) rotate(-45)"/>
  <path d="M8.707 1h12v2h-12zM1.707 0h4v4h-4zM8.707 9h12v2h-12zM8.707 17h12v2h-12zM1.707 16h4v4h-4zM2.707 13.414l4.707-4.707L6 7.293l-3.293 3.293-1.293-1.293L0 10.707l2.707 2.707z"
    transform="translate(550,515) rotate(-45)"/>
  <path d="M8.707 1h12v2h-12zM1.707 0h4v4h-4zM8.707 9h12v2h-12zM8.707 17h12v2h-12zM1.707 16h4v4h-4zM2.707 13.414l4.707-4.707L6 7.293l-3.293 3.293-1.293-1.293L0 10.707l2.707 2.707z"
    transform="translate(0,565) rotate(-45)"/>
  <path d="M8.707 1h12v2h-12zM1.707 0h4v4h-4zM8.707 9h12v2h-12zM8.707 17h12v2h-12zM1.707 16h4v4h-4zM2.707 13.414l4.707-4.707L6 7.293l-3.293 3.293-1.293-1.293L0 10.707l2.707 2.707z"
    transform="translate(50,565) rotate(-45)"/>
  <path d="M8.707 1h12v2h-12zM1.707 0h4v4h-4zM8.707 9h12v2h-12zM8.707 17h12v2h-12zM1.707 16h4v4h-4zM2.707 13.414l4.707-4.707L6 7.293l-3.293 3.293-1.293-1.293L0 10.707l2.707 2.707z"
    transform="translate(100,565) rotate(-45)"/>
  <path d="M8.707 1h12v2h-12zM1.707 0h4v4h-4zM8.707 9h12v2h-12zM8.707 17h12v2h-12zM1.707 16h4v4h-4zM2.707 13.414l4.707-4.707L6 7.293l-3.293 3.293-1.293-1.293L0 10.707l2.707 2.707z"
    transform="translate(150,565) rotate(-45)"/>
  <path d="M8.707 1h12v2h-12zM1.707 0h4v4h-4zM8.707 9h12v2h-12zM8.707 17h12v2h-12zM1.707 16h4v4h-4zM2.707 13.414l4.707-4.707L6 7.293l-3.293 3.293-1.293-1.293L0 10.707l2.707 2.707z"
    transform="translate(200,565) rotate(-45)"/>
  <path d="M8.707 1h12v2h-12zM1.707 0h4v4h-4zM8.707 9h12v2h-12zM8.707 17h12v2h-12zM1.707 16h4v4h-4zM2.707 13.414l4.707-4.707L6 7.293l-3.293 3.293-1.293-1.293L0 10.707l2.707 2.707z"
    transform="translate(250,565) rotate(-45)"/>
  <path d="M8.707 1h12v2h-12zM1.707 0h4v4h-4zM8.707 9h12v2h-12zM8.707 17h12v2h-12zM1.707 16h4v4h-4zM2.707 13.414l4.707-4.707L6 7.293l-3.293 3.293-1.293-1.293L0 10.707l2.707 2.707z"
    transform="translate(300,565) rotate(-45)"/>
  <path d="M8.707 1h12v2h-12zM1.707 0h4v4h-4zM8.707 9h12v2h-12zM8.707 17h12v2h-12zM1.707 16h4v4h-4zM2.707 13.414l4.707-4.707L6 7.293l-3.293 3.293-1.293-1.293L0 10.707l2.707 2.707z"
    transform="translate(350,565) rotate(-45)"/>
  <path d="M8.707 1h12v2h-12zM1.707 0h4v4h-4zM8.707 9h12v2h-12zM8.707 17h12v2h-12zM1.707 16h4v4h-4zM2.707 13.414l4.707-4.707L6 7.293l-3.293 3.293-1.293-1.293L0 10.707l2.707 2.707z"
    transform="translate(400,565) rotate(-45)"/>
  <path d="M8.707 1h12v2h-12zM1.707 0h4v4h-4zM8.707 9h12v2h-12zM8.707 17h12v2h-12zM1.707 16h4v4h-4zM2.707 13.414l4.707-4.707L6 7.293l-3.293 3.293-1.293-1.293L0 10.707l2.707 2.707z"
    transform="translate(450,565) rotate(-45)"/>
  <path d="M8.707 1h12v2h-12zM1.707 0h4v4h-4zM8.707 9h12v2h-12zM8.707 17h12v2h-12zM1.707 16h4v4h-4zM2.707 13.414l4.707-4.707L6 7.293l-3.293 3.293-1.293-1.293L0 10.707l2.707 2.707z"
    transform="translate(500,565) rotate(-45)"/>
  <path d="M8.707 1h12v2h-12zM1.707 0h4v4h-4zM8.707 9h12v2h-12zM8.707 17h12v2h-12zM1.707 16h4v4h-4zM2.707 13.414l4.707-4.707L6 7.293l-3.293 3.293-1.293-1.293L0 10.707l2.707 2.707z"
    transform="translate(550,565) rotate(-45)"/>
</svg>